<?xml version="1.0" standalone="no"?>
<!DOCTYPE svg PUBLIC "-//W3C//DTD SVG 20010904//EN"
 "http://www.w3.org/TR/2001/REC-SVG-20010904/DTD/svg10.dtd">
<svg version="1.0" xmlns="http://www.w3.org/2000/svg"
 width="110.000000pt" height="110.000000pt" viewBox="0 0 110.000000 110.000000"
 preserveAspectRatio="xMidYMid meet">
<metadata>
Created by potrace 1.11, written by Peter Selinger 2001-2013
</metadata>
<g transform="translate(0.000000,110.000000) scale(0.100000,-0.100000)"
fill="#000000" stroke="none">
<path d="M533 1008 c-80 -81 -93 -98 -95 -130 -1 -21 -4 -35 -7 -32 -3 2 -4
27 -2 54 1 28 0 50 -4 50 -3 0 -46 -39 -95 -87 l-90 -88 -2 -100 -2 -100 -6
118 -5 119 -93 -92 -92 -92 0 -217 0 -216 95 -95 95 -95 2 285 c1 157 4 231 5
165 l4 -121 94 -94 95 -95 2 235 c1 129 3 204 5 165 l4 -70 86 -87 c48 -48 89
-85 93 -83 3 2 5 177 5 390 0 213 2 388 6 390 3 2 5 -26 4 -63 -1 -37 0 -73 3
-79 2 -8 22 -13 46 -13 39 0 47 5 126 85 l85 85 -135 0 -135 0 -92 -92z m-96
-200 c-3 -8 -6 -5 -6 6 -1 11 2 17 5 13 3 -3 4 -12 1 -19z m0 -33 c0 -8 -4
-12 -9 -9 -4 3 -8 9 -8 15 0 5 4 9 8 9 5 0 9 -7 9 -15z m0 -47 c-3 -8 -6 -5
-6 6 -1 11 2 17 5 13 3 -3 4 -12 1 -19z m2 -65 c-1 -53 -6 -49 -11 10 -2 20 0
37 4 37 4 0 8 -21 7 -47z"/>
<path d="M723 918 l-88 -88 137 0 c120 0 138 2 147 18 6 9 11 13 11 7 0 -5
-67 -77 -148 -160 l-149 -150 1 -60 1 -60 69 -3 68 -3 149 149 149 150 0 133
0 133 -67 -64 -68 -65 70 73 c38 39 65 72 60 73 -6 1 -65 2 -132 3 l-123 2
-87 -88z"/>
<path d="M496 218 c-15 -67 -16 -78 -6 -78 9 0 15 21 11 43 -3 18 11 4 23 -24
l13 -31 13 33 14 32 11 -33 c10 -30 12 -31 27 -16 18 18 53 21 63 6 12 -19 35
-10 35 13 1 20 2 20 16 -6 9 -16 18 -27 21 -24 2 3 0 14 -6 25 -23 42 -3 45
20 3 18 -30 58 -38 67 -12 3 8 0 11 -7 7 -20 -13 -51 4 -51 28 0 28 24 50 45
42 8 -3 15 -1 15 4 0 16 -46 11 -61 -6 -11 -14 -13 -14 -21 0 -5 9 -20 16 -34
16 -22 0 -25 -4 -24 -32 3 -54 1 -55 -21 -8 l-21 45 -20 -43 c-11 -24 -21 -42
-24 -40 -2 2 -8 22 -12 44 l-9 39 -18 -39 -17 -40 -18 40 -17 39 -7 -27z m227
-2 c3 -8 -1 -17 -9 -20 -9 -4 -14 1 -14 14 0 23 15 27 23 6z m-73 -26 c0 -5
-7 -10 -16 -10 -8 0 -12 5 -9 10 3 6 10 10 16 10 5 0 9 -4 9 -10z"/>
<path d="M836 224 c-19 -19 -20 -44 -3 -66 25 -33 83 -22 93 18 13 49 -54 85
-90 48z m68 -16 c14 -23 -2 -52 -31 -56 -29 -4 -47 40 -25 62 20 20 41 17 56
-6z"/>
<path d="M489 118 c-1 -2 -2 -25 -3 -51 l-2 -49 30 5 c17 2 43 1 58 -4 16 -4
28 -4 28 1 0 4 -9 10 -20 13 -24 6 -17 37 9 38 11 0 8 3 -7 10 -13 5 -20 13
-17 19 4 6 10 8 15 5 5 -3 11 -1 15 5 4 6 -5 10 -19 10 -23 0 -26 -4 -26 -37
0 -50 -16 -30 -19 25 -1 10 -38 19 -42 10z m31 -29 c0 -5 -4 -9 -10 -9 -5 0
-10 7 -10 16 0 8 5 12 10 9 6 -3 10 -10 10 -16z m10 -39 c0 -4 -7 -10 -15 -14
-10 -4 -15 1 -15 14 0 13 5 18 15 14 8 -4 15 -10 15 -14z"/>
<path d="M610 70 c0 -27 5 -50 10 -50 6 0 10 11 10 25 0 19 5 24 20 22 11 -2
26 -9 33 -17 9 -10 9 -11 0 -6 -8 5 -13 1 -13 -9 0 -11 5 -15 15 -12 8 4 17 2
19 -2 5 -7 45 -6 101 3 11 2 19 9 18 15 -4 17 17 13 23 -4 4 -8 10 -15 15 -15
6 0 5 9 -1 20 -8 14 -7 25 2 40 11 17 10 22 -2 30 -33 21 -49 12 -52 -32 -2
-35 -7 -43 -23 -43 -11 0 -21 8 -23 18 -2 12 3 17 18 17 12 0 19 4 15 10 -3 5
-12 7 -20 3 -10 -3 -15 1 -15 12 0 9 4 14 8 11 4 -2 14 -1 22 5 11 6 7 9 -16
9 -29 0 -30 -2 -30 -42 0 -32 -4 -44 -17 -46 -14 -3 -17 5 -17 40 0 37 -3 44
-20 45 -14 1 -20 -4 -20 -18 0 -12 -7 -19 -20 -19 -13 0 -20 7 -20 20 0 11 -4
20 -10 20 -5 0 -10 -22 -10 -50z m235 11 c-9 -16 -25 -3 -18 15 4 10 9 12 15
6 6 -6 7 -15 3 -21z"/>
</g>
</svg>
